<svg width="48" height="62" viewBox="0 0 48 62" fill="none" xmlns="http://www.w3.org/2000/svg">
<path d="M23.7917 0C11.3253 0 0.891734 9.76132 0.0372048 22.2001C-0.285439 27.928 1.49867 33.58 5.0679 38.1371L21.8621 60.1152C22.0867 60.4089 22.3783 60.6474 22.7139 60.8117C23.0495 60.976 23.4198 61.0615 23.7952 61.0615C24.1706 61.0615 24.5408 60.976 24.8764 60.8117C25.212 60.6474 25.5037 60.4089 25.7282 60.1152L42.5156 38.1506C46.0842 33.5931 47.8683 27.9414 47.5463 22.2136C46.6917 9.76132 36.2582 0 23.7917 0ZM22.7343 39.2862C19.8606 35.6347 7.16147 26.8263 7.40185 22.2277C8.0014 13.4822 12.6966 6.72 23.7917 6.72C34.8868 6.72 38.5245 13.9857 39.1241 22.7446C39.3694 27.3501 25.6126 35.6293 22.7343 39.2862Z" fill="#1C1C1C"/>
<path d="M23.5863 4.0002C19.9238 3.98311 16.3385 5.05357 13.2849 7.07596C10.2312 9.09834 7.84661 11.9816 6.43314 15.3605C5.01967 18.7394 4.64097 22.4618 5.34502 26.0562C6.04906 29.6505 7.80417 32.9549 10.388 35.5508C12.9718 38.1468 16.268 39.9173 19.859 40.6382C23.4499 41.359 27.1741 40.9977 30.5596 39.6001C33.945 38.2024 36.8394 35.8313 38.8761 32.7872C40.9127 29.743 42 26.1628 42 22.5002C42.0001 17.6086 40.0628 12.9161 36.612 9.44915C33.1613 5.9822 28.4779 4.02303 23.5863 4.0002V4.0002ZM23.5863 32.3669C21.6313 32.384 19.7153 31.8199 18.0814 30.7462C16.4475 29.6725 15.1694 28.1375 14.4094 26.3362C13.6494 24.5349 13.4416 22.5484 13.8125 20.6288C14.1834 18.7092 15.1163 16.943 16.4926 15.5545C17.869 14.166 19.6269 13.2177 21.5431 12.8299C23.4594 12.4422 25.4477 12.6324 27.2556 13.3766C29.0635 14.1208 30.6096 15.3853 31.6977 17.0097C32.7857 18.6341 33.3666 20.5451 33.3667 22.5002C33.37 25.1042 32.3438 27.604 30.5117 29.4546C28.6796 31.3052 26.1903 32.3564 23.5863 32.3792V32.3669Z" fill="#1C1C1C"/>
<ellipse cx="23.6722" cy="22.1015" rx="3.17222" ry="3.10154" fill="#1C1C1C"/>
</svg>
